<svg width="128" height="128" viewBox="0 0 128 128" fill="none" xmlns="http://www.w3.org/2000/svg">
<g clip-path="url(#clip0)">
<circle cx="64" cy="64" r="64" fill="#0099FF" fill-opacity="0.15"/>
<mask id="mask0" mask-type="alpha" maskUnits="userSpaceOnUse" x="0" y="0" width="128" height="128">
<circle cx="64" cy="64" r="64" fill="#C4C4C4"/>
</mask>
<g mask="url(#mask0)">
<path fill-rule="evenodd" clip-rule="evenodd" d="M2.52162e-06 17.7966L5 21.356C11 23.7288 21 29.661 32 33.2204C43 35.5933 53 35.5933 64 33.2204C75 32.0339 85 27.2882 96 21.356C107 16.6102 117 10.678 123 7.11868L128 4.74579L128 2.79482e-05L123 2.69054e-05C117 2.5654e-05 107 2.35683e-05 96 2.12741e-05C85 1.89799e-05 75 1.68942e-05 64 1.46e-05C53 1.23057e-05 43 1.02201e-05 32 7.92583e-06C21 5.63159e-06 11 3.54593e-06 5 2.29453e-06L5.13018e-06 1.2517e-06L2.52162e-06 17.7966Z" fill="#0099FF"/>
<path fill-rule="evenodd" clip-rule="evenodd" d="M-26 112.229L-18.9688 106.494C-10.5312 100.759 3.53125 89.2886 19 89.2886C34.4688 87.8548 48.5312 96.4574 64 97.8911C79.4688 99.3249 93.5312 92.1561 109 89.2886C124.469 87.8548 138.531 92.1561 146.969 93.5899L154 95.0236V128H146.969C138.531 128 124.469 128 109 128C93.5312 128 79.4688 128 64 128C48.5312 128 34.4688 128 19 128C3.53125 128 -10.5312 128 -18.9688 128H-26V112.229Z" fill="#0099FF"/>
<path fill-rule="evenodd" clip-rule="evenodd" d="M-38 99.953L-30 99.1436C-23 98.3341 -8 96.7153 7 91.0494C22 85.3836 37 74.8612 52 74.0518C67 73.2424 82 82.1459 97 85.3836C112 87.8118 127 85.3836 135 83.7647L142 82.1459V104H135C127 104 112 104 97 104C82 104 67 104 52 104C37 104 22 104 7 104C-8 104 -23 104 -30 104H-38V99.953Z" fill="#0099FF" fill-opacity="0.5"/>
<path fill-rule="evenodd" clip-rule="evenodd" d="M126.375 42.8188L121.55 45.6705C115.807 49.8061 106.235 56.6986 95.1113 55.3622C83.9873 54.0257 73.3043 44.2709 62.1008 41.7454C50.8974 39.2199 41.0877 42.5451 30.1225 43.5869C19.1572 44.6286 9.02997 43.1975 2.96951 42.5766L-2.17349 40.672L-3.04682 27.5919L1.9374 27.1184C7.91846 26.5502 17.8869 25.6031 28.8522 24.5613C39.8174 23.5196 49.7859 22.5725 60.7512 21.5308C71.7164 20.489 81.6849 19.5419 92.6501 18.5002C103.615 17.4584 113.584 16.5114 119.565 15.9431L124.549 15.4696L126.375 42.8188Z" fill="#0099FF" fill-opacity="0.5"/>
</g>
</g>
<defs>
<clipPath id="clip0">
<rect width="128" height="128" fill="white"/>
</clipPath>
</defs>
</svg>
